<svg width="18" height="17" viewBox="0 0 18 17" fill="none" xmlns="http://www.w3.org/2000/svg">
<path d="M8.84163 5.66016C8.09019 5.66016 7.36952 5.95867 6.83816 6.49002C6.30681 7.02137 6.0083 7.74204 6.0083 8.49349C6.0083 9.24494 6.30681 9.96561 6.83816 10.497C7.36952 11.0283 8.09019 11.3268 8.84163 11.3268C9.59308 11.3268 10.3138 11.0283 10.8451 10.497C11.3765 9.96561 11.675 9.24494 11.675 8.49349C11.675 7.74204 11.3765 7.02137 10.8451 6.49002C10.3138 5.95867 9.59308 5.66016 8.84163 5.66016Z" fill="white"/>
<path fill-rule="evenodd" clip-rule="evenodd" d="M5.44229 -0.0078125C4.08968 -0.0078125 2.79248 0.529507 1.83604 1.48594C0.879605 2.44238 0.342285 3.73958 0.342285 5.09219L0.342285 11.8922C0.342285 13.2448 0.879605 14.542 1.83604 15.4984C2.79248 16.4549 4.08968 16.9922 5.44229 16.9922H12.2423C13.5949 16.9922 14.8921 16.4549 15.8485 15.4984C16.805 14.542 17.3423 13.2448 17.3423 11.8922V5.09219C17.3423 3.73958 16.805 2.44238 15.8485 1.48594C14.8921 0.529507 13.5949 -0.0078125 12.2423 -0.0078125L5.44229 -0.0078125ZM4.87562 8.49219C4.87562 7.44016 5.29353 6.43123 6.03743 5.68733C6.78132 4.94344 7.79026 4.52552 8.84229 4.52552C9.89431 4.52552 10.9032 4.94344 11.6471 5.68733C12.391 6.43123 12.809 7.44016 12.809 8.49219C12.809 9.54421 12.391 10.5532 11.6471 11.297C10.9032 12.0409 9.89431 12.4589 8.84229 12.4589C7.79026 12.4589 6.78132 12.0409 6.03743 11.297C5.29353 10.5532 4.87562 9.54421 4.87562 8.49219ZM12.809 4.52552H13.9423V3.39219H12.809V4.52552Z" fill="white"/>
</svg>
