<svg width="33" height="33" viewBox="0 0 33 33" fill="none" xmlns="http://www.w3.org/2000/svg">
<path d="M28.2148 16.4443C29.363 15.6106 30.2321 14.5225 30.7635 13.3086C31.1296 14.2982 31.3213 15.4074 31.3213 16.6458C31.3213 19.6025 30.1859 21.6738 29.0215 23.0081C28.4437 23.6704 27.8638 24.146 27.4221 24.4595C27.335 24.5212 27.2532 24.5767 27.1776 24.6264V26.6132C27.1776 28.1911 25.7861 29.4704 24.0698 29.4704H23.0339C21.8896 29.4704 20.962 28.6174 20.962 27.5656H16.8184C16.8184 28.6174 15.8908 29.4704 14.7465 29.4704H13.7106C11.9942 29.4704 10.6028 28.1911 10.6028 26.6132V26.2069C10.4239 26.1546 10.2236 26.0898 10.0074 26.0094C9.17879 25.702 8.09911 25.1627 7.10289 24.2344C5.87615 23.0911 5.18896 21.6605 4.84457 20.7627C4.73184 20.4688 4.50599 20.2839 4.28621 20.2267C3.12036 19.9238 2.31543 18.9456 2.31543 17.8318V16.3195C2.31543 15.2226 3.10627 14.2585 4.25346 13.957C4.4676 13.9007 4.69992 13.7083 4.81424 13.3905C5.09326 12.6149 5.63138 11.4688 6.61758 10.5497C7.42433 9.79787 8.29503 9.24217 8.95597 8.87627C9.15625 8.76537 9.33924 8.67084 9.49784 8.59261V5.01628C9.49784 4.34297 9.97799 3.86771 10.494 3.67518C11.0057 3.48426 11.6918 3.51619 12.2049 3.96188C12.7286 4.41672 13.4171 4.96078 14.1534 5.40384C14.9085 5.85821 15.617 6.1467 16.1949 6.20057L16.2059 6.2016C15.1119 7.69455 14.6081 9.52257 14.8424 11.3532C15.0931 13.3117 16.7418 14.4895 18.1258 15.0164L23.0755 16.9009C24.4597 17.4278 26.5314 17.6665 28.2148 16.4443ZM10.0849 15.1837C10.943 15.1837 11.6387 14.5441 11.6387 13.7551C11.6387 12.9662 10.943 12.3266 10.0849 12.3266C9.22667 12.3266 8.53097 12.9662 8.53097 13.7551C8.53097 14.5441 9.22667 15.1837 10.0849 15.1837Z" fill="#8048F8"/>
<path d="M17.2958 8.36328C17.8933 6.97545 19.0779 5.80309 20.6962 5.18665C23.8675 3.97869 27.5036 5.363 28.8176 8.27858C29.9066 10.695 29.0588 13.4048 26.931 14.9496C26.0685 15.5758 24.884 15.5277 23.8686 15.1412L18.9189 13.2567C17.9035 12.8702 17.0288 12.1342 16.9004 11.1308C16.8377 10.6407 16.8456 10.1508 16.919 9.67265L17.2958 8.36328ZM17.2958 8.36328L17.0139 9.19896C17.0576 9.02302 17.1103 8.84922 17.1716 8.67822C17.2097 8.57212 17.2511 8.46709 17.2958 8.36328Z" fill="#8048F8"/>
</svg>
