<svg width="27" height="27" viewBox="0 0 27 27" fill="none" xmlns="http://www.w3.org/2000/svg">
<path d="M14.6618 2.79866V5.1623C16.5885 5.42275 18.3761 6.30945 19.7492 7.68581C21.1224 9.06217 22.0049 10.8518 22.2609 12.7791H24.6245C24.3543 10.2275 23.2183 7.84551 21.4056 6.02957C19.5929 4.21364 17.2129 3.07339 14.6618 2.79866ZM2.31771 12.7791H4.68134C4.94179 10.8524 5.8285 9.06484 7.20486 7.69168C8.58122 6.31852 10.3709 5.43599 12.2982 5.18003V2.81639C9.74659 3.08658 7.36455 4.2226 5.54862 6.03531C3.73269 7.84801 2.59244 10.228 2.31771 12.7791ZM22.2609 15.1428C22.0013 17.0668 21.1172 18.8525 19.7444 20.2253C18.3715 21.5982 16.5859 22.4823 14.6618 22.7418V25.1055C17.2134 24.8353 19.5954 23.6993 21.4113 21.8866C23.2273 20.0739 24.3675 17.6938 24.6423 15.1428H22.2609ZM4.69907 15.1428H2.33543C2.60563 17.6943 3.74164 20.0764 5.55435 21.8923C7.36706 23.7082 9.74708 24.8485 12.2982 25.1232V22.7596C10.3715 22.4991 8.58388 21.6124 7.21072 20.2361C5.83756 18.8597 4.95503 17.07 4.69907 15.1428ZM13.48 8.64276C12.4281 8.64276 11.3999 8.95466 10.5254 9.53903C9.65079 10.1234 8.96914 10.954 8.56662 11.9258C8.1641 12.8975 8.05878 13.9668 8.26399 14.9985C8.46919 16.0301 8.9757 16.9777 9.71946 17.7215C10.4632 18.4652 11.4108 18.9717 12.4425 19.1769C13.4741 19.3821 14.5434 19.2768 15.5152 18.8743C16.4869 18.4718 17.3175 17.7901 17.9019 16.9156C18.4863 16.041 18.7982 15.0128 18.7982 13.9609C18.7982 12.5505 18.2379 11.1978 17.2405 10.2004C16.2431 9.20306 14.8904 8.64276 13.48 8.64276ZM26.48 14.5518H20.5709V13.37H26.48V14.5518ZM14.0709 6.87003H12.8891V0.960938H14.0709V6.87003ZM6.38907 14.5518H0.47998V13.37H6.38907V14.5518ZM14.0709 26.9609H12.8891V21.0518H14.0709V26.9609Z" fill="#F15642"/>
</svg>
